<svg width="487" height="120" viewBox="0 0 487 120" fill="none" xmlns="http://www.w3.org/2000/svg">
<path d="M0.8 94V0.815994H27.296C36.5973 0.815994 44.4907 2.22399 50.976 5.03999C57.4613 7.77066 62.7093 11.4827 66.72 16.176C70.7307 20.784 73.632 25.9467 75.424 31.664C77.3013 37.296 78.24 42.9707 78.24 48.688C78.24 55.6853 77.0027 61.9573 74.528 67.504C72.0533 73.0507 68.6827 77.8293 64.416 81.84C60.1493 85.7653 55.2 88.7947 49.568 90.928C44.0213 92.976 38.0907 94 31.776 94H0.8ZM15.776 79.664H29.088C34.0373 79.664 38.56 78.9813 42.656 77.616C46.752 76.1653 50.2933 74.1173 53.28 71.472C56.352 68.7413 58.6987 65.3707 60.32 61.36C62.0267 57.3493 62.88 52.784 62.88 47.664C62.88 41.8613 61.8987 36.912 59.936 32.816C58.0587 28.6347 55.5413 25.264 52.384 22.704C49.312 20.0587 45.9413 18.1387 42.272 16.944C38.6027 15.7493 34.976 15.152 31.392 15.152H15.776V79.664ZM108.159 39.856L109.439 55.216L108.927 53.04C110.463 49.7973 112.554 47.024 115.199 44.72C117.93 42.3307 120.703 40.5387 123.519 39.344C126.335 38.064 128.639 37.424 130.431 37.424L129.791 51.76C125.695 51.4187 122.111 52.1867 119.039 54.064C116.052 55.856 113.706 58.2453 111.999 61.232C110.378 64.2187 109.567 67.376 109.567 70.704V94H95.231V39.856H108.159ZM133.203 86.192C133.203 83.9733 134.014 82.1387 135.635 80.688C137.256 79.152 139.048 78.384 141.011 78.384C142.803 78.384 144.51 79.152 146.131 80.688C147.752 82.1387 148.563 83.9733 148.563 86.192C148.563 88.5813 147.752 90.5013 146.131 91.952C144.51 93.3173 142.803 94 141.011 94C139.048 94 137.256 93.3173 135.635 91.952C134.014 90.5013 133.203 88.5813 133.203 86.192ZM197.617 10.8V6.19199H199.281C199.196 6.19199 203.292 6.27733 211.569 6.448C218.652 6.53333 225.734 6.53333 232.817 6.448L244.977 6.19199H246.641V10.8V15.408H239.729H232.817V29.488V43.696H250.225H267.505V29.488V15.408H260.593H253.681V10.8V6.19199H255.345L267.505 6.448C274.588 6.53333 281.67 6.53333 288.753 6.448C297.03 6.27733 301.126 6.19199 301.041 6.19199H302.705V10.8V15.408H295.793H288.881V50.096V84.784H295.793H302.705V89.392V94H301.041L288.881 93.744C281.798 93.6587 274.716 93.6587 267.633 93.744C259.356 93.9147 255.26 94 255.345 94H253.681V89.392V84.784H260.593H267.505V68.784V52.912H250.225H232.817V68.784V84.784H239.729H246.641V89.392V94H244.977C245.062 94 240.966 93.9147 232.689 93.744C225.606 93.6587 218.524 93.6587 211.441 93.744L199.281 94H197.617V89.392V84.784H204.529H211.441V50.096V15.408H204.529H197.617V10.8ZM343.587 95.408C337.187 95.408 331.726 94.1707 327.203 91.696C322.68 89.2213 319.224 85.808 316.835 81.456C314.446 77.0187 313.251 72.0267 313.251 66.48C313.251 61.0187 314.616 56.112 317.347 51.76C320.078 47.408 323.747 43.952 328.355 41.392C333.048 38.7467 338.211 37.424 343.843 37.424C351.267 37.424 357.368 39.6 362.147 43.952C367.011 48.2187 370.254 54.2773 371.875 62.128L328.227 76.848L324.899 68.784L358.947 56.624L356.003 58.288C355.064 55.728 353.528 53.5093 351.395 51.632C349.347 49.7547 346.446 48.816 342.691 48.816C339.704 48.816 337.059 49.5413 334.755 50.992C332.451 52.3573 330.616 54.32 329.251 56.88C327.971 59.3547 327.331 62.2987 327.331 65.712C327.331 69.2107 328.056 72.2827 329.507 74.928C330.958 77.5733 332.92 79.6213 335.395 81.072C337.87 82.4373 340.686 83.12 343.843 83.12C346.062 83.12 348.195 82.736 350.243 81.968C352.291 81.2 354.211 80.176 356.003 78.896L362.531 89.52C359.715 91.312 356.6 92.7627 353.187 93.872C349.859 94.896 346.659 95.408 343.587 95.408ZM399.037 5.936C406.034 5.424 409.448 5.168 409.277 5.168C410.045 5.168 410.557 5.46666 410.813 6.064C410.898 6.40533 407.826 19.12 401.597 44.208L391.997 82.864C391.912 83.2053 391.869 83.9307 391.869 85.04C391.869 87.2587 392.381 88.624 393.405 89.136C395.624 90.0747 397.544 88.752 399.165 85.168C399.848 83.888 400.701 81.328 401.725 77.488C402.237 75.696 402.664 74.7147 403.005 74.544C403.176 74.4587 403.986 74.416 405.437 74.416C407.058 74.416 407.997 74.5013 408.253 74.672C408.424 74.8427 408.509 75.184 408.509 75.696C408.509 76.8053 407.869 79.1093 406.589 82.608C405.224 85.8507 404.072 88.1973 403.133 89.648C401.17 92.464 398.909 94.256 396.349 95.024C395.752 95.1947 394.813 95.28 393.533 95.28C391.485 95.28 389.778 95.024 388.413 94.512C384.146 92.976 381.544 90.1173 380.605 85.936C380.264 83.9733 380.264 82.3093 380.605 80.944C380.605 81.0293 383.25 70.2347 388.541 48.56C394.002 26.7147 396.562 15.4507 396.221 14.768C395.624 14.1707 393.789 13.8293 390.717 13.744H388.029L387.517 13.232C387.176 12.8907 387.218 11.7813 387.645 9.904C388.157 7.94133 388.584 6.87466 388.925 6.70399C389.01 6.70399 392.381 6.448 399.037 5.936ZM457.002 95.408C453.247 95.408 449.621 94.5973 446.122 92.976C442.623 91.3547 439.807 89.136 437.674 86.32L438.442 81.968V119.984H424.106V38.832H436.522L438.442 51.376L437.162 47.536C439.807 44.6347 443.007 42.2453 446.762 40.368C450.602 38.4053 454.911 37.424 459.69 37.424C464.81 37.424 469.375 38.6187 473.386 41.008C477.397 43.3973 480.554 46.8107 482.858 51.248C485.247 55.6 486.442 60.7627 486.442 66.736C486.442 72.7093 485.162 77.8293 482.602 82.096C480.042 86.3627 476.543 89.648 472.106 91.952C467.669 94.256 462.634 95.408 457.002 95.408ZM454.186 84.016C457.343 84.016 460.245 83.2907 462.89 81.84C465.621 80.3893 467.797 78.384 469.418 75.824C471.039 73.1787 471.85 70.2347 471.85 66.992C471.85 63.5787 471.082 60.592 469.546 58.032C468.095 55.3867 466.09 53.3387 463.53 51.888C461.055 50.352 458.282 49.584 455.21 49.584C452.394 49.584 449.877 50.0533 447.658 50.992C445.439 51.9307 443.562 53.296 442.026 55.088C440.49 56.7947 439.295 58.8427 438.442 61.232V72.112C439.039 74.416 440.063 76.464 441.514 78.256C442.965 80.048 444.799 81.456 447.018 82.48C449.237 83.504 451.626 84.016 454.186 84.016Z" fill="black"/>
</svg>
